<svg width="16" height="16" viewBox="0 0 16 16" fill="none" xmlns="http://www.w3.org/2000/svg">
<path d="M7.99992 9.58331C7.76982 9.58331 7.58325 9.76988 7.58325 9.99998C7.58325 10.2301 7.76982 10.4166 7.99992 10.4166C8.23002 10.4166 8.41659 10.2301 8.41659 9.99998C8.41659 9.76988 8.23002 9.58331 7.99992 9.58331ZM7.99992 8.66665C8.18388 8.66652 8.33337 8.51731 8.33325 8.33331V5.66665C8.33325 5.48256 8.184 5.33331 7.99992 5.33331C7.81584 5.33331 7.66659 5.48256 7.66659 5.66665V8.33368C7.66671 8.51768 7.81592 8.66677 7.99992 8.66665ZM7.99992 1.33331C4.31803 1.33331 1.33325 4.31809 1.33325 7.99998C1.33325 11.6819 4.31803 14.6666 7.99992 14.6666C11.68 14.6623 14.6623 11.6801 14.6666 7.99998C14.6666 4.31809 11.6818 1.33331 7.99992 1.33331ZM7.99992 14C4.6862 14 1.99992 11.3137 1.99992 7.99998C1.99992 4.68626 4.6862 1.99998 7.99992 1.99998C11.3121 2.0036 13.9963 4.68776 13.9999 7.99998C13.9999 11.3137 11.3136 14 7.99992 14Z" fill="#F23148"/>
</svg>
