<svg width="101" height="100" viewBox="0 0 101 100" fill="none" xmlns="http://www.w3.org/2000/svg">
<path d="M69.5427 33.2324L41.3105 61.4648L28.957 49.1162C28.9451 49.1043 28.9332 49.0924 28.921 49.0805C27.935 48.1143 26.3524 48.1302 25.3862 49.1162C24.4197 50.1025 24.4359 51.6852 25.4219 52.6514L39.543 66.7676C40.0111 67.2372 40.6474 67.5009 41.3105 67.5C41.9737 67.5006 42.6097 67.2372 43.0778 66.7676L73.0778 36.7676C73.0897 36.7557 73.1016 36.7441 73.1135 36.7319C74.0797 35.7458 74.0638 34.1632 73.0778 33.197C72.0918 32.2305 70.5092 32.2467 69.5427 33.2324ZM50.5 0C22.8859 0 0.5 22.3859 0.5 50C0.5 77.6141 22.8859 100 50.5 100C78.1007 99.9677 100.468 77.6007 100.5 50C100.5 22.3859 78.1141 0 50.5 0ZM50.5 95C25.6471 95 5.5 74.8529 5.5 50C5.5 25.1471 25.6471 5 50.5 5C75.3416 5.02716 95.4728 25.1584 95.5 50C95.5 74.8529 75.3529 95 50.5 95Z" fill="#0D71C9"/>
</svg>
